<?xml version="1.0" encoding="UTF-8" standalone="no"?>
<!-- Created with Inkscape (http://www.inkscape.org/) -->

<svg
   xmlns:dc="http://purl.org/dc/elements/1.1/"
   xmlns:cc="http://creativecommons.org/ns#"
   xmlns:rdf="http://www.w3.org/1999/02/22-rdf-syntax-ns#"
   xmlns:svg="http://www.w3.org/2000/svg"
   xmlns="http://www.w3.org/2000/svg"
   xmlns:sodipodi="http://sodipodi.sourceforge.net/DTD/sodipodi-0.dtd"
   xmlns:inkscape="http://www.inkscape.org/namespaces/inkscape"
   id="svg3039"
   version="1.1"
   inkscape:version="0.92.1 r15371"
   width="50"
   height="50"
   sodipodi:docname="p7.svg"
   viewBox="0 0 46.875002 46.875002">
  <metadata
     id="metadata3045">
    <rdf:RDF>
      <cc:Work
         rdf:about="">
        <dc:format>image/svg+xml</dc:format>
        <dc:type
           rdf:resource="http://purl.org/dc/dcmitype/StillImage" />
        <dc:title></dc:title>
      </cc:Work>
    </rdf:RDF>
  </metadata>
  <defs
     id="defs3043" />
  <sodipodi:namedview
     pagecolor="#ffffff"
     bordercolor="#666666"
     borderopacity="1"
     objecttolerance="10"
     gridtolerance="10"
     guidetolerance="10"
     inkscape:pageopacity="0"
     inkscape:pageshadow="2"
     inkscape:window-width="1680"
     inkscape:window-height="987"
     id="namedview3041"
     showgrid="false"
     showguides="true"
     inkscape:guide-bbox="true"
     inkscape:zoom="3.73125"
     inkscape:cx="-7.0236086"
     inkscape:cy="33.7405"
     inkscape:window-x="-8"
     inkscape:window-y="-8"
     inkscape:window-maximized="1"
     inkscape:current-layer="svg3039" />
  <g
     id="g824"
     transform="matrix(0.66964295,0,0,0.66964295,0,-5.4980794e-6)">
    <g
       transform="translate(0.75380253,-2.6995188)"
       id="g2988">
      <path
         style="fill:#000000;stroke:none"
         d="m 34.00335,12.663317 c -7.357145,0.415549 -6.612334,6.173746 -5.276382,10.552763 -6.675187,4.524233 -6.924344,10.758057 -1.407035,17.470687 -9.71079,4.056116 -11.550166,13.490657 -11.725293,22.160804 H 52.763819 C 51.784709,54.111752 54.609828,43.44609 41.97655,40.686767 46.734124,35.426303 47.105135,28.440922 40.569515,23.21608 41.434032,18.306756 41.360496,12.247768 34.00335,12.663317 Z"
         id="path3049"
         inkscape:connector-curvature="0"
         sodipodi:nodetypes="zccccccz" />
      <path
         style="fill:#ffffff;stroke:none"
         d="m 34.387675,12.551465 c 1.863419,2.015087 6.878653,2.723842 4.086176,10.664615 4.456886,4.054037 6.202443,9.89898 0.54603,17.470687 7.360614,4.261967 12.540816,11.31576 13.757224,22.160804 C 53.282436,52.248205 52.630694,42.844724 42.219041,40.686767 48.133459,33.550506 45.79179,27.014176 40.532384,23.21608 43.095341,12.392771 37.06347,12.831223 34.387675,12.551465 Z"
         id="path3819"
         inkscape:connector-curvature="0"
         sodipodi:nodetypes="ccccccc" />
    </g>
    <rect
       ry="69.999992"
       rx="132.217"
       y="7.6293945e-006"
       x="1.016548e-014"
       height="69.999992"
       width="69.999992"
       id="rect823"
       style="opacity:1;fill:none;fill-opacity:1;stroke:none;stroke-width:1.52563179;stroke-linecap:round;stroke-linejoin:miter;stroke-miterlimit:4;stroke-dasharray:none;stroke-opacity:1;paint-order:fill markers stroke" />
  </g>
</svg>
