<?xml version="1.0" encoding="UTF-8" standalone="no"?>
<!-- Created with Inkscape (http://www.inkscape.org/) -->

<svg
   xmlns:dc="http://purl.org/dc/elements/1.1/"
   xmlns:cc="http://creativecommons.org/ns#"
   xmlns:rdf="http://www.w3.org/1999/02/22-rdf-syntax-ns#"
   xmlns:svg="http://www.w3.org/2000/svg"
   xmlns="http://www.w3.org/2000/svg"
   xmlns:sodipodi="http://sodipodi.sourceforge.net/DTD/sodipodi-0.dtd"
   xmlns:inkscape="http://www.inkscape.org/namespaces/inkscape"
   width="50"
   height="50"
   id="svg2"
   version="1.1"
   inkscape:version="0.92.1 r15371"
   sodipodi:docname="p4.svg"
   viewBox="0 0 46.875002 46.875002">
  <defs
     id="defs4" />
  <sodipodi:namedview
     id="base"
     pagecolor="#ffffff"
     bordercolor="#666666"
     borderopacity="1.0"
     inkscape:pageopacity="0.0"
     inkscape:pageshadow="2"
     inkscape:zoom="7.4625"
     inkscape:cx="19.028475"
     inkscape:cy="40"
     inkscape:document-units="px"
     inkscape:current-layer="layer1"
     showgrid="false"
     fit-margin-top="0"
     fit-margin-left="0"
     fit-margin-right="0"
     fit-margin-bottom="0"
     showguides="true"
     inkscape:guide-bbox="true"
     inkscape:window-width="1680"
     inkscape:window-height="987"
     inkscape:window-x="-8"
     inkscape:window-y="-8"
     inkscape:window-maximized="1">
    <sodipodi:guide
       orientation="0,1"
       position="46.14553,61.63792"
       id="guide4054"
       inkscape:locked="false" />
    <sodipodi:guide
       orientation="0,1"
       position="46.834173,33.433837"
       id="guide4056"
       inkscape:locked="false" />
    <sodipodi:guide
       orientation="0,1"
       position="42.211056,18.291458"
       id="guide4058"
       inkscape:locked="false" />
  </sodipodi:namedview>
  <metadata
     id="metadata7">
    <rdf:RDF>
      <cc:Work
         rdf:about="">
        <dc:format>image/svg+xml</dc:format>
        <dc:type
           rdf:resource="http://purl.org/dc/dcmitype/StillImage" />
        <dc:title></dc:title>
      </cc:Work>
    </rdf:RDF>
  </metadata>
  <g
     inkscape:label="Camada 1"
     inkscape:groupmode="layer"
     id="layer1"
     transform="translate(-128.57143,-436.91574)">
    <g
       id="g828"
       transform="matrix(0.66964296,0,0,0.66964296,42.474476,159.82368)">
      <g
         transform="translate(0.24145334,0.61467071)"
         id="g2989">
        <path
           style="fill:#ffffff;stroke:none"
           d="m 163.86456,421.52943 c -7.37322,0.36001 -3.16705,8.32813 -3.16705,8.32813 -11.83926,8.82076 -15.32791,16.30176 -6.85807,24.67857 -5.856,6.99121 -2.81306,11.04874 4.63149,13.24959 l -16.35679,1.70016 c -2.57969,1.41904 -6.37351,2.48573 -5.04187,4.80737 l 5.86264,-0.41038 18.64322,-0.29314 c 1.19687,-1.72656 2.9392,-2.20272 4.16248,-0.11725 l 17.00167,0.17588 6.68342,1.23116 c 1.27161,-2.25213 -0.19683,-4.29077 -5.45226,-5.92128 l -13.48409,-1.17252 c 5.47137,-3.10058 9.71884,-3.91765 2.69682,-13.24959 10.33561,-8.32947 2.17988,-17.83316 -6.57622,-24.67857 0,0 4.62783,-8.68814 -2.74539,-8.32813 z"
           id="path3284"
           inkscape:connector-curvature="0"
           sodipodi:nodetypes="zccccccccccccccz" />
        <path
           style="fill:#000000;stroke:none"
           d="m 164.27495,421.47081 c 3.85793,0.0305 5.09793,3.07943 2.35807,8.38675 5.34775,4.42646 18.71175,14.24146 6.72192,24.67857 3.05081,4.90022 7.41691,9.30519 -2.80696,13.24959 l 13.41351,1.08855 c 1.46905,0.46804 7.57997,2.16979 5.45888,6.00703 -1.94441,-1.07278 -4.7078,-2.39927 -7.10562,-2.50412 -10.59929,-0.46351 -10.69313,-2.39707 -14.22908,-4.59146 7.86393,-3.39217 4.56951,-8.33411 1.46566,-13.24959 9.90518,-9.90153 -0.97013,-16.77258 -4.74874,-24.67857 2.34949,-4.43908 2.04682,-7.15215 -0.52764,-8.38675 z"
           id="path4083"
           inkscape:connector-curvature="0"
           sodipodi:nodetypes="ccccccscccc" />
      </g>
      <rect
         ry="69.999992"
         rx="132.217"
         y="413.79074"
         x="128.57143"
         height="69.999992"
         width="69.999992"
         id="rect823"
         style="opacity:1;fill:none;fill-opacity:1;stroke:none;stroke-width:1.52563179;stroke-linecap:round;stroke-linejoin:miter;stroke-miterlimit:4;stroke-dasharray:none;stroke-opacity:1;paint-order:fill markers stroke" />
    </g>
  </g>
</svg>
