<?xml version="1.0" encoding="UTF-8" standalone="no"?>
<!-- Created with Inkscape (http://www.inkscape.org/) -->

<svg
   xmlns:dc="http://purl.org/dc/elements/1.1/"
   xmlns:cc="http://creativecommons.org/ns#"
   xmlns:rdf="http://www.w3.org/1999/02/22-rdf-syntax-ns#"
   xmlns:svg="http://www.w3.org/2000/svg"
   xmlns="http://www.w3.org/2000/svg"
   xmlns:sodipodi="http://sodipodi.sourceforge.net/DTD/sodipodi-0.dtd"
   xmlns:inkscape="http://www.inkscape.org/namespaces/inkscape"
   width="50"
   height="50"
   id="svg2"
   version="1.1"
   inkscape:version="0.92.1 r15371"
   sodipodi:docname="p6.svg"
   viewBox="0 0 46.875002 46.875002">
  <defs
     id="defs4" />
  <sodipodi:namedview
     id="base"
     pagecolor="#ffffff"
     bordercolor="#666666"
     borderopacity="1.0"
     inkscape:pageopacity="0.0"
     inkscape:pageshadow="2"
     inkscape:zoom="7.4625"
     inkscape:cx="31.52993"
     inkscape:cy="38.548535"
     inkscape:document-units="px"
     inkscape:current-layer="layer1"
     showgrid="false"
     fit-margin-top="0"
     fit-margin-left="0"
     fit-margin-right="0"
     fit-margin-bottom="0"
     inkscape:window-width="1680"
     inkscape:window-height="987"
     inkscape:window-x="-8"
     inkscape:window-y="-8"
     inkscape:window-maximized="1" />
  <metadata
     id="metadata7">
    <rdf:RDF>
      <cc:Work
         rdf:about="">
        <dc:format>image/svg+xml</dc:format>
        <dc:type
           rdf:resource="http://purl.org/dc/dcmitype/StillImage" />
        <dc:title></dc:title>
      </cc:Work>
    </rdf:RDF>
  </metadata>
  <g
     inkscape:label="Camada 1"
     inkscape:groupmode="layer"
     id="layer1"
     transform="translate(-310,-525.48718)">
    <g
       id="g825"
       transform="matrix(0.66964295,0,0,0.66964295,102.41068,189.08388)">
      <g
         transform="translate(0.11097721,-0.02911299)"
         id="g2984">
        <path
           style="fill:#ffffff;stroke:none"
           d="m 326.64992,561.3404 -0.11726,-11.66666 c -15.80589,-11.24934 -7.85542,-30.68398 11.78392,-20.63652 0.41921,-4.52588 1.45674,-8.09273 5.48158,-9.0871 v -3.95729 h -3.72278 c -1.45702,-0.74228 -1.2006,-1.69132 -0.0586,-2.49162 l 3.92797,0.0293 -0.41038,-3.42965 c 0.8759,-1.07915 1.78315,-1.59393 2.81407,0.11726 l -0.35176,3.28308 4.60218,-0.0293 c 1.6319,0.7976 1.28102,1.65576 0.0293,2.37438 h -4.25042 v 3.89866 c 3.32648,1.49283 4.86433,3.96462 5.07119,8.50083 25.92896,-8.06329 23.75399,15.08141 10.20101,21.89699 l -0.0586,10.72864 c -11.14716,6.65586 -22.85707,5.99606 -34.94137,0.46901 z"
           id="path3280"
           inkscape:connector-curvature="0"
           sodipodi:nodetypes="ccccccccccccccccccc" />
        <path
           style="fill:#000000;stroke:none"
           d="m 344.96541,509.11092 c 0.53285,-0.0333 0.95509,0.42149 1.39607,1.12206 l -0.33237,3.24656 4.61132,-0.0109 c 0.92319,0.5355 1.8617,1.23769 0.0126,2.39016 l -4.23216,0.0251 0.01,3.814 c 2.08882,1.08142 4.825,2.67199 5.03385,8.53539 24.45727,-8.30326 25.16618,14.12806 10.25806,21.98231 l -0.0142,10.65579 -2.44335,-10.091 c 10.85876,-18.21747 0.70013,-19.12651 -9.16469,-20.27751 -0.41045,-4.14047 -1.24996,-8.02668 -4.60935,-10.41964 l 0.0404,-4.59361 1.80969,-0.39132 c 1.21498,-0.28631 1.38514,-0.62012 0.16919,-1.01693 l -2.05508,-0.2571 c -0.0859,-1.54336 0.57692,-3.5624 -0.48997,-4.71336 z"
           id="path2983"
           inkscape:connector-curvature="0"
           sodipodi:nodetypes="cccccccccccccccccc" />
      </g>
      <rect
         ry="69.999992"
         rx="132.217"
         y="502.36218"
         x="310"
         height="69.999992"
         width="69.999992"
         id="rect823"
         style="opacity:1;fill:none;fill-opacity:1;stroke:none;stroke-width:1.52563179;stroke-linecap:round;stroke-linejoin:miter;stroke-miterlimit:4;stroke-dasharray:none;stroke-opacity:1;paint-order:fill markers stroke" />
    </g>
  </g>
</svg>
