<?xml version="1.0" encoding="UTF-8" standalone="no"?>
<!-- Created with Inkscape (http://www.inkscape.org/) -->

<svg
   xmlns:dc="http://purl.org/dc/elements/1.1/"
   xmlns:cc="http://creativecommons.org/ns#"
   xmlns:rdf="http://www.w3.org/1999/02/22-rdf-syntax-ns#"
   xmlns:svg="http://www.w3.org/2000/svg"
   xmlns="http://www.w3.org/2000/svg"
   xmlns:sodipodi="http://sodipodi.sourceforge.net/DTD/sodipodi-0.dtd"
   xmlns:inkscape="http://www.inkscape.org/namespaces/inkscape"
   width="50"
   height="50"
   id="svg2"
   version="1.1"
   inkscape:version="0.92.1 r15371"
   sodipodi:docname="p9.svg"
   viewBox="0 0 46.875002 46.875002">
  <defs
     id="defs4" />
  <sodipodi:namedview
     id="base"
     pagecolor="#ffffff"
     bordercolor="#666666"
     borderopacity="1.0"
     inkscape:pageopacity="0.0"
     inkscape:pageshadow="2"
     inkscape:zoom="8.5285714"
     inkscape:cx="42.196513"
     inkscape:cy="35.675041"
     inkscape:document-units="px"
     inkscape:current-layer="layer1"
     showgrid="false"
     fit-margin-top="0"
     fit-margin-left="0"
     fit-margin-right="0"
     fit-margin-bottom="0"
     inkscape:window-width="1680"
     inkscape:window-height="987"
     inkscape:window-x="-8"
     inkscape:window-y="-8"
     inkscape:window-maximized="1" />
  <metadata
     id="metadata7">
    <rdf:RDF>
      <cc:Work
         rdf:about="">
        <dc:format>image/svg+xml</dc:format>
        <dc:type
           rdf:resource="http://purl.org/dc/dcmitype/StillImage" />
        <dc:title></dc:title>
      </cc:Work>
    </rdf:RDF>
  </metadata>
  <g
     inkscape:label="Camada 1"
     inkscape:groupmode="layer"
     id="layer1"
     transform="translate(-145.71428,-542.63004)">
    <g
       id="g825"
       transform="matrix(0.66964295,0,0,0.66964295,48.137739,194.74715)">
      <g
         transform="translate(0.80889693,-0.06291197)"
         id="g2990">
        <path
           style="fill:#000000;stroke:none"
           d="m 166.74523,529.32584 c -1.56489,3.60334 -0.18755,6.1028 -0.41699,8.66493 -1.56992,4.38699 -22.41785,29.00103 -4.19855,28.18094 0,0 -1.56891,2.34619 1.5536,3.04857 1.26079,0.28361 16.71456,-10.18692 17.5,-16.64991 -0.49731,18.10551 -13.76394,15.28791 -12.54606,28.14949 l 36.40703,-0.009 c -2.0467,-22.90704 -2.32266,-47.15271 -23.84847,-45.10214 -0.3652,-2.43793 -0.0606,-4.95957 -2.06442,-7.19267 -2.22781,1.46318 -4.45562,4.15307 -6.68342,6.91793 -1.77881,-2.07815 -3.336,-5.88991 -5.70272,-6.00835 z"
           id="path3069"
           inkscape:connector-curvature="0"
           sodipodi:nodetypes="cccsccccccc" />
        <path
           style="fill:#ffffff;fill-opacity:1;stroke:none"
           d="m 179.13238,528.50995 0.52793,8.54422 c 27.2703,2.01598 17.37691,28.80776 25.44532,43.625 -2.01316,-11.26973 1.57182,-47.02836 -23.60911,-45.1759 -0.59806,-2.53491 -0.55546,-5.66903 -2.36414,-6.99332 z"
           id="path3941"
           inkscape:connector-curvature="0"
           sodipodi:nodetypes="ccccc" />
      </g>
      <rect
         ry="69.999992"
         rx="132.217"
         y="519.50507"
         x="145.71428"
         height="69.999992"
         width="69.999992"
         id="rect823"
         style="opacity:1;fill:none;fill-opacity:1;stroke:none;stroke-width:1.52563179;stroke-linecap:round;stroke-linejoin:miter;stroke-miterlimit:4;stroke-dasharray:none;stroke-opacity:1;paint-order:fill markers stroke" />
    </g>
  </g>
</svg>
