<?xml version="1.0" encoding="UTF-8" standalone="no"?>
<!-- Created with Inkscape (http://www.inkscape.org/) -->

<svg
   xmlns:dc="http://purl.org/dc/elements/1.1/"
   xmlns:cc="http://creativecommons.org/ns#"
   xmlns:rdf="http://www.w3.org/1999/02/22-rdf-syntax-ns#"
   xmlns:svg="http://www.w3.org/2000/svg"
   xmlns="http://www.w3.org/2000/svg"
   xmlns:sodipodi="http://sodipodi.sourceforge.net/DTD/sodipodi-0.dtd"
   xmlns:inkscape="http://www.inkscape.org/namespaces/inkscape"
   width="50"
   height="50"
   id="svg2"
   version="1.1"
   inkscape:version="0.92.1 r15371"
   sodipodi:docname="p11.svg"
   viewBox="0 0 46.875002 46.875002">
  <defs
     id="defs4" />
  <sodipodi:namedview
     id="base"
     pagecolor="#ffffff"
     bordercolor="#666666"
     borderopacity="1.0"
     inkscape:pageopacity="0.0"
     inkscape:pageshadow="2"
     inkscape:zoom="8.5285714"
     inkscape:cx="16.649916"
     inkscape:cy="35"
     inkscape:document-units="px"
     inkscape:current-layer="layer1"
     showgrid="false"
     fit-margin-top="0"
     fit-margin-left="0"
     fit-margin-right="0"
     fit-margin-bottom="0"
     inkscape:window-width="1680"
     inkscape:window-height="987"
     inkscape:window-x="-8"
     inkscape:window-y="-8"
     inkscape:window-maximized="1" />
  <metadata
     id="metadata7">
    <rdf:RDF>
      <cc:Work
         rdf:about="">
        <dc:format>image/svg+xml</dc:format>
        <dc:type
           rdf:resource="http://purl.org/dc/dcmitype/StillImage" />
        <dc:title></dc:title>
      </cc:Work>
    </rdf:RDF>
  </metadata>
  <g
     inkscape:label="Camada 1"
     inkscape:groupmode="layer"
     id="layer1"
     transform="translate(-311.42856,-545.48718)">
    <g
       id="g825"
       transform="matrix(0.66964295,0,0,0.66964295,102.88262,195.69102)">
      <g
         transform="translate(0.03220394,1.0849191)"
         id="g2984">
        <path
           style="fill:#000000;stroke:none"
           d="m 328.4304,582.97462 36.58292,-0.11735 c 4.14596,-2.86658 -1.20223,-5.93984 -1.9933,-9.38772 l 0.29128,-3.962 4.86784,-6.59918 2.57957,-17.13259 c 2.86846,0.97119 9.68966,-5.92106 3.28308,-8.56629 -6.40658,-2.64524 -7.63496,5.76351 -5.39363,7.39282 l -8.67672,16.54586 0.70352,-20.77033 c 2.64603,0.0324 6.52576,-8.00843 -0.93803,-8.21425 -7.46379,-0.20582 -4.81932,8.08613 -1.87604,8.21425 l -6.09716,19.71421 -3.28308,-22.29583 c 3.01473,0.0393 5.33589,-8.05709 -1.9933,-8.21426 -7.32918,-0.15717 -4.59518,8.61435 -1.87604,8.44895 l -2.22781,22.29584 -6.91792,-20.30095 c 2.42194,0 5.36434,-8.95901 -2.68802,-8.68364 -8.05237,0.27537 -2.69295,9.44753 -0.71232,9.03568 l 1.05528,20.41829 -9.14573,-16.6632 c 3.02285,-1.63376 0.52932,-10.02249 -5.15913,-7.62752 -5.68844,2.39497 -1.66212,10.97878 2.34506,8.80098 l 2.69682,18.54075 5.21776,6.248 -0.41039,3.60911 c -1.31395,4.25506 -5.83165,8.66461 -0.23451,9.27037 z"
           id="path3050"
           inkscape:connector-curvature="0"
           sodipodi:nodetypes="cccccczccczccczccczccczccccc" />
        <path
           style="fill:#ffffff;fill-opacity:1;stroke:none"
           d="m 373.55659,537.03205 c 1.76401,3.57337 -1.05488,5.81578 -4.20209,7.85316 l -4.36987,16.42063 -5.00519,8.27151 0.14773,5.21455 c 2.36923,2.2764 5.65109,3.56832 4.8796,8.07117 4.23942,-2.75795 -1.18286,-6.01092 -1.96729,-9.30491 l 0.32442,-3.92717 c 0,0 4.3394,-5.76232 4.80841,-6.70109 0.46901,-0.93878 2.58923,-17.13525 2.58923,-17.13525 3.18237,1.21042 10.12054,-6.31622 2.79505,-8.7626 z"
           id="path3820"
           inkscape:connector-curvature="0"
           sodipodi:nodetypes="ccccccccscc" />
      </g>
      <rect
         ry="69.999992"
         rx="132.217"
         y="522.36218"
         x="311.42856"
         height="69.999992"
         width="69.999992"
         id="rect823"
         style="opacity:1;fill:none;fill-opacity:1;stroke:none;stroke-width:1.52563179;stroke-linecap:round;stroke-linejoin:miter;stroke-miterlimit:4;stroke-dasharray:none;stroke-opacity:1;paint-order:fill markers stroke" />
    </g>
  </g>
</svg>
