<?xml version="1.0" encoding="UTF-8" standalone="no"?>
<!-- Created with Inkscape (http://www.inkscape.org/) -->

<svg
   xmlns:dc="http://purl.org/dc/elements/1.1/"
   xmlns:cc="http://creativecommons.org/ns#"
   xmlns:rdf="http://www.w3.org/1999/02/22-rdf-syntax-ns#"
   xmlns:svg="http://www.w3.org/2000/svg"
   xmlns="http://www.w3.org/2000/svg"
   xmlns:sodipodi="http://sodipodi.sourceforge.net/DTD/sodipodi-0.dtd"
   xmlns:inkscape="http://www.inkscape.org/namespaces/inkscape"
   width="50"
   height="50"
   id="svg2"
   version="1.1"
   inkscape:version="0.92.1 r15371"
   sodipodi:docname="p8.svg"
   viewBox="0 0 46.875002 46.875002">
  <defs
     id="defs4" />
  <sodipodi:namedview
     id="base"
     pagecolor="#ffffff"
     bordercolor="#666666"
     borderopacity="1.0"
     inkscape:pageopacity="0.0"
     inkscape:pageshadow="2"
     inkscape:zoom="7.4625"
     inkscape:cx="19.028478"
     inkscape:cy="39.999998"
     inkscape:document-units="px"
     inkscape:current-layer="layer1"
     showgrid="false"
     fit-margin-top="0"
     fit-margin-left="0"
     fit-margin-right="0"
     fit-margin-bottom="0"
     showguides="true"
     inkscape:guide-bbox="true"
     inkscape:window-width="1680"
     inkscape:window-height="987"
     inkscape:window-x="-8"
     inkscape:window-y="-8"
     inkscape:window-maximized="1" />
  <metadata
     id="metadata7">
    <rdf:RDF>
      <cc:Work
         rdf:about="">
        <dc:format>image/svg+xml</dc:format>
        <dc:type
           rdf:resource="http://purl.org/dc/dcmitype/StillImage" />
        <dc:title></dc:title>
      </cc:Work>
    </rdf:RDF>
  </metadata>
  <g
     inkscape:label="Camada 1"
     inkscape:groupmode="layer"
     id="layer1"
     transform="translate(-722.85712,-739.77289)">
    <g
       id="g825"
       transform="matrix(0.66964296,0,0,0.66964296,238.80094,259.87467)">
      <g
         transform="translate(-0.32244758,-1.9932961)"
         id="g2994">
        <path
           style="fill:#000000;stroke:none"
           d="m 736.69297,777.79529 v -5.68676 h 4.45561 l -0.11726,-5.39364 3.04858,-4.80737 -0.46901,-19.58124 -4.22111,-4.33836 -0.46901,-8.55946 h 6.68342 l 0.11725,4.10385 h 8.55947 v -4.10385 h 7.85594 l 0.23451,4.10385 h 6.68341 l 0.23451,-4.10385 h 7.15243 l -0.0699,8.55946 -4.50296,4.33836 -0.46901,19.58124 2.34505,4.80737 0.11726,5.39364 h 4.51423 l -0.11725,5.74539 z"
           id="path3050"
           inkscape:connector-curvature="0"
           sodipodi:nodetypes="ccccccccccccccccccccccccc" />
        <path
           style="fill:#ffffff;fill-opacity:1;stroke:none"
           d="m 772.7644,729.42846 c 0.38143,4.10385 0.38145,4.10385 0.43812,8.55946 l -5.55478,4.33836 -0.46901,19.58124 2.40368,4.80737 -0.17588,5.39364 h 3.51286 l 0.18061,5.74539 h 6.56617 l -0.11726,-5.74539 h -5.74539 v -5.39364 l -2.22781,-4.80737 0.29313,-19.58124 4.97198,-4.33836 c -0.0234,-2.86343 -0.27207,-5.70937 -0.51636,-8.55946 z"
           id="path3844"
           inkscape:connector-curvature="0"
           sodipodi:nodetypes="ccccccccccccccccc" />
      </g>
      <rect
         ry="69.999992"
         rx="132.217"
         y="716.64789"
         x="722.85712"
         height="69.999992"
         width="69.999992"
         id="rect823"
         style="opacity:1;fill:none;fill-opacity:1;stroke:none;stroke-width:1.52563179;stroke-linecap:round;stroke-linejoin:miter;stroke-miterlimit:4;stroke-dasharray:none;stroke-opacity:1;paint-order:fill markers stroke" />
    </g>
  </g>
</svg>
